<svg width="100" height="24" viewBox="0 0 100 24" fill="none" xmlns="http://www.w3.org/2000/svg">
<path d="M20.6257 2.625H3.37567C2.96083 2.625 2.62567 2.96016 2.62567 3.375V20.625C2.62567 21.0398 2.96083 21.375 3.37567 21.375H20.6257C21.0405 21.375 21.3757 21.0398 21.3757 20.625V3.375C21.3757 2.96016 21.0405 2.625 20.6257 2.625ZM18.46 8.09766H16.9624C15.7882 8.09766 15.5608 8.65547 15.5608 9.47578V11.2828H18.364L17.9983 14.1117H15.5608V21.375H12.6382V14.1141H10.1936V11.2828H12.6382V9.19687C12.6382 6.77578 14.1171 5.45625 16.278 5.45625C17.314 5.45625 18.2022 5.53359 18.4624 5.56875V8.09766H18.46Z" fill="#142E1A" fill-opacity="0.62"/>
<path d="M50 6.50236C46.9598 6.50236 44.5062 8.95593 44.5062 11.9961C44.5062 15.0363 46.9598 17.4899 50 17.4899C53.0401 17.4899 55.4937 15.0363 55.4937 11.9961C55.4937 8.95593 53.0401 6.50236 50 6.50236ZM50 15.5666C48.0339 15.5666 46.4294 13.9622 46.4294 11.9961C46.4294 10.03 48.0339 8.42557 50 8.42557C51.966 8.42557 53.5705 10.03 53.5705 11.9961C53.5705 13.9622 51.966 15.5666 50 15.5666ZM55.7187 4.997C55.0089 4.997 54.4357 5.57022 54.4357 6.28004C54.4357 6.98986 55.0089 7.56307 55.7187 7.56307C56.4285 7.56307 57.0018 6.99254 57.0018 6.28004C57.002 6.11149 56.9689 5.94455 56.9045 5.78879C56.8401 5.63303 56.7456 5.49151 56.6264 5.37232C56.5072 5.25314 56.3657 5.15864 56.21 5.09424C56.0542 5.02983 55.8873 4.99679 55.7187 4.997ZM60.7089 11.9961C60.7089 10.5175 60.7223 9.05236 60.6393 7.57647C60.5562 5.86218 60.1651 4.34075 58.9116 3.08718C57.6553 1.83093 56.1366 1.44254 54.4223 1.3595C52.9437 1.27647 51.4785 1.28986 50.0026 1.28986C48.5241 1.28986 47.0589 1.27647 45.583 1.3595C43.8687 1.44254 42.3473 1.83361 41.0937 3.08718C39.8375 4.34343 39.4491 5.86218 39.366 7.57647C39.283 9.05504 39.2964 10.5202 39.2964 11.9961C39.2964 13.472 39.283 14.9399 39.366 16.4158C39.4491 18.13 39.8401 19.6515 41.0937 20.905C42.35 22.1613 43.8687 22.5497 45.583 22.6327C47.0616 22.7158 48.5267 22.7024 50.0026 22.7024C51.4812 22.7024 52.9464 22.7158 54.4223 22.6327C56.1366 22.5497 57.658 22.1586 58.9116 20.905C60.1678 19.6488 60.5562 18.13 60.6393 16.4158C60.725 14.9399 60.7089 13.4747 60.7089 11.9961ZM58.3517 18.3122C58.1562 18.7997 57.9205 19.164 57.5428 19.539C57.1651 19.9166 56.8035 20.1524 56.316 20.3479C54.9071 20.9077 51.5616 20.7818 50 20.7818C48.4384 20.7818 45.0901 20.9077 43.6812 20.3506C43.1937 20.155 42.8294 19.9193 42.4544 19.5416C42.0767 19.164 41.841 18.8024 41.6455 18.3149C41.0884 16.9033 41.2142 13.5577 41.2142 11.9961C41.2142 10.4345 41.0884 7.08629 41.6455 5.67736C41.841 5.18986 42.0767 4.82557 42.4544 4.45057C42.8321 4.07557 43.1937 3.83718 43.6812 3.64165C45.0901 3.0845 48.4384 3.21039 50 3.21039C51.5616 3.21039 54.9098 3.0845 56.3187 3.64165C56.8062 3.83718 57.1705 4.0729 57.5455 4.45057C57.9232 4.82825 58.1589 5.18986 58.3544 5.67736C58.9116 7.08629 58.7857 10.4345 58.7857 11.9961C58.7857 13.5577 58.9116 16.9033 58.3517 18.3122Z" fill="#142E1A" fill-opacity="0.62"/>
<path d="M89.676 10.6587L96.2291 3.19922H94.6767L88.9843 9.67485L84.4412 3.19922H79.1999L86.0715 12.9924L79.1999 20.8139H80.7522L86.7597 13.9739L91.5586 20.8139H96.7999M81.3125 4.34557H83.6973L94.6756 19.7239H92.2902" fill="#142E1A" fill-opacity="0.62"/>
</svg>
